<?xml version="1.0"?>
<svg xmlns="http://www.w3.org/2000/svg" xmlns:xlink="http://www.w3.org/1999/xlink" version="1.1" id="Capa_1" x="0px" y="0px" viewBox="0 0 512 512" style="enable-background:new 0 0 512 512;" xml:space="preserve" width="512px" height="512px"><g transform="matrix(-1.83697e-16 -1 1 -1.83697e-16 0 512)"><g>
	<g>
		<path d="M505.965,92.992L385.962,3.013c-9.778-7.371-23.993-0.391-23.991,11.999l0.006,44.997l-256.973,0.032    c-24.813,0.004-44.992,20.191-44.989,45.003l0.029,256.978l-44.997,0.006C2.696,362.03-4.346,376.179,3.054,386.022l90.009,119.98    c5.989,8.004,18.014,7.991,23.991-0.004l89.979-120.003c7.389-9.834,0.363-23.993-11.999-23.991l-45.197,0.006l-0.026-212.181    l212.176-0.026L361.993,195c0.002,12.51,14.382,19.33,23.994,11.993l119.981-90.009C513.973,110.995,513.959,98.97,505.965,92.992    z" data-original="#000000" class="active-path" fill="#222222"/>
	</g>
</g></g> </svg>
